<?xml version="1.0" encoding="UTF-8"?><svg id="Layer_1" xmlns="http://www.w3.org/2000/svg" viewBox="0 0 386.68 491.972"><path d="M286.543,257.377c-11.474-10.347-27.227-17.322-47.25-20.924v-3.713l55.011,9.786v-20.248h-74.923v18.224c15.072,2.701,27.391,6.639,36.956,11.815,9.56,5.176,16.645,11.023,21.26,17.547,4.61,6.529,6.922,13.278,6.922,20.253,0,8.328-2.758,14.851-8.27,19.576-5.516,4.725-12.208,7.085-20.08,7.085-9.004,0-17.499-2.921-25.481-8.774-7.992-5.847-15.417-13.556-22.277-23.121-6.864-9.56-12.995-20.133-18.391-31.722-5.137-11.028-9.618-22.104-13.427-33.233,14.42-5.411,26.493-11.21,36.207-17.394,11.138-7.085,19.404-14.794,24.805-23.117,5.401-8.323,8.102-17.326,8.102-27.002,0-8.548-1.914-16.54-5.737-23.961-3.833-7.426-9.45-13.446-16.876-18.061-7.426-4.605-16.655-6.917-27.678-6.917-12.151,0-21.994,2.758-29.53,8.27-7.541,5.516-12.995,12.486-16.367,20.924-3.377,8.438-5.066,17.044-5.066,25.817,0,7.426,1.127,16.823,3.377,28.182,1.665,8.414,3.914,17.35,6.754,26.815-7.517,2.643-14.213,5.742-20.085,9.301-7.992,4.84-14.631,10.237-19.912,16.199-5.291,5.963-9.229,12.318-11.815,19.068-2.59,6.749-3.881,13.839-3.881,21.26,0,10.803,2.533,20.368,7.594,28.691,5.066,8.328,11.868,14.799,20.42,19.404,8.548,4.61,18.108,6.922,28.686,6.922,8.548,0,15.864-1.41,21.936-4.221,6.078-2.811,11.023-6.414,14.851-10.798,3.823-4.389,6.749-8.946,8.773-13.671h.509c6.84,7.723,14.266,14.137,22.277,19.241,10.232,6.524,21.313,9.786,33.243,9.786,6.073,0,11.863-.902,17.379-2.701,5.512-1.799,10.462-4.437,14.851-7.929,4.389-3.487,7.872-7.762,10.462-12.827,2.586-5.061,3.881-10.851,3.881-17.379,0-13.95-5.737-26.1-17.211-36.452ZM166.898,142.798c1.909-5.958,5.176-11.023,9.786-15.187,4.61-4.164,10.745-6.246,18.396-6.246,8.548,0,15.916,2.926,22.104,8.773,6.188,5.857,9.282,13.729,9.282,23.625,0,10.126-4.332,19.576-12.995,28.35-8.15,8.256-21.922,16.214-41.316,23.87-2.091-7.157-3.79-13.988-5.089-20.492-2.024-10.126-3.036-18.449-3.036-24.973,0-5.852.955-11.757,2.869-17.72ZM185.294,309.861c-6.754,4.164-15.187,6.241-25.313,6.241-8.553,0-15.979-1.569-22.277-4.725-6.303-3.147-11.139-7.536-14.511-13.163-3.377-5.622-5.066-12.146-5.066-19.572,0-11.249,4.053-21.485,12.151-30.715,7.08-8.059,16.813-14.487,29.213-19.279,4.063,11.58,8.894,23.064,14.496,34.466,6.409,13.052,13.777,24.978,22.104,35.775.297.389.595.772.897,1.151-3.075,3.631-6.97,6.903-11.695,9.819Z" fill="#eefdff"/><path d="M205.208,272.404c2.142,3.457,4.359,6.8,6.656,10,6.568,9.159,13.746,16.617,21.334,22.169.841.617,1.686,1.193,2.533,1.737l20.833-33.906h-51.357Z" fill="#eefdff"/><path d="M142.294,308.765c5.103,2.041,11.03,3.084,17.687,3.084,9.28,0,17.046-1.887,23.082-5.607,3.197-1.975,5.999-4.139,8.363-6.459-6.351-8.422-12.186-17.608-17.431-27.379h-22.998l-8.703,36.361Z" fill="#eefdff"/><path d="M202.378,312.66c-1.866,3.235-4.139,6.396-6.793,9.444-4.217,4.829-9.69,8.819-16.272,11.864-6.614,3.061-14.596,4.613-23.722,4.613-6.951,0-13.556-.96-19.749-2.859l-12.758,53.301-1.467-59.773c-7.678-4.786-13.982-11.173-18.764-19.036-5.45-8.963-8.213-19.359-8.213-30.9,0-2.328.136-4.631.377-6.911H1.055s113.799,121.955,113.799,121.955H1.055s0,97.613,0,97.613h120.598s100.338-163.298,100.338-163.298c-.112-.071-.227-.136-.339-.208-6.808-4.338-13.271-9.641-19.273-15.806Z" fill="#eefdff"/><path d="M241.503,309.432c4.706,2.075,9.56,3.094,14.666,3.094,6.887,0,12.55-1.983,17.313-6.062,4.564-3.913,6.784-9.261,6.784-16.347,0-6.102-1.999-11.906-6.104-17.742h-9.737l-22.922,37.057Z" fill="#eefdff"/><path d="M303.659,313.143c-2.858,5.592-6.763,10.376-11.604,14.222-4.753,3.782-10.196,6.691-16.177,8.643-5.923,1.932-12.213,2.91-18.698,2.91-10.414,0-20.326-2.37-29.558-7.048l-49.799,80.507,75.15,79.566h133.706v-219.568s0,0,0,0h-83.426c3.158,6.66,4.752,13.827,4.752,21.455,0,7.172-1.462,13.67-4.347,19.313ZM310.946,447.686h0s-46.521,0-46.521,0l-17.535-70.305s0,0,0,0l69.782,29.503-5.726,40.802Z" fill="#eefdff"/><path d="M134.131,218.069l9.202-32.289c-2.071-10.826-3.133-20.014-3.133-27.29,0-9.276,1.807-18.494,5.37-27.397,3.655-9.144,9.646-16.808,17.805-22.776,8.247-6.032,19.026-9.09,32.04-9.09,2.021,0,3.988.081,5.908.23V0h-55.149l-48.296,166.651L70.956,0H0v219.324s26.739,0,26.739,0l13.706-46.716,8.158,46.716h83.417c.094-.057.183-.117.277-.174.602-.365,1.215-.725,1.835-1.081Z" fill="#eefdff"/><path d="M195.079,125.617c-6.625,0-11.71,1.684-15.546,5.149-4.03,3.64-6.919,8.124-8.586,13.329-1.77,5.511-2.666,11.036-2.666,16.422,0,6.212.994,14.334,2.954,24.14.992,4.962,2.239,10.194,3.719,15.604,10.763-4.478,19.57-9.061,26.368-13.701v-60.299c-1.985-.426-4.061-.644-6.243-.644Z" fill="#eefdff"/><path d="M201.323,213.851c-3.715,1.864-7.66,3.69-11.824,5.473h11.824v-5.473Z" fill="#eefdff"/><path d="M243.747,126.505c4.122,8,6.211,16.716,6.211,25.91,0,10.469-2.956,20.333-8.787,29.317-5.716,8.808-14.494,17.014-26.09,24.39-2.077,1.322-4.278,2.628-6.575,3.92v9.282h113.724s0,0,0,0l27.411-13.327,3.182,13.327h33.856V0S208.507,0,208.507,0v37.798l120.74,28.53-120.74,2.508v31.575c6.294,1.207,11.928,3.332,16.828,6.371,8.044,4.999,14.237,11.634,18.412,19.724ZM335.773,105.203l-21.537,69.286h-42.749l-5.874-42.324,70.16-26.962Z" fill="#eefdff"/><path d="M210.444,179.127c7.92-8.021,11.77-16.317,11.77-25.363,0-8.754-2.602-15.472-7.953-20.537-1.816-1.717-3.732-3.131-5.754-4.261v52.001c.677-.613,1.332-1.226,1.938-1.84Z" fill="#eefdff"/></svg>