<?xml version="1.0" encoding="UTF-8"?><svg id="Layer_1" xmlns="http://www.w3.org/2000/svg" viewBox="0 0 698.412 399.861"><polygon points="363.624 0 264.016 0 176.785 303.831 128.159 0 0 0 0 399.861 48.295 399.861 73.05 314.691 87.785 399.861 241.618 399.861 268.731 303.831 284.645 399.861 363.624 399.861 363.624 0" fill="#eefdff"/><path d="M698.412,0h-321.812s0,68.911,0,68.911l218.078,52.014-218.078,4.573v274.363s205.405,0,205.405,0h0s49.51-24.297,49.51-24.297l5.747,24.297h61.15s0-399.861,0-399.861ZM606.465,191.801l-38.9,126.319h-77.211s-10.609-77.163-10.609-77.163l126.721-49.156Z" fill="#eefdff"/></svg>