<?xml version="1.0" encoding="UTF-8"?><svg id="Layer_1" xmlns="http://www.w3.org/2000/svg" viewBox="0 0 1944.754 417.732"><polygon points="176.785 312.107 128.159 8.277 0 8.277 0 408.137 48.295 408.137 73.05 322.967 87.785 408.137 241.619 408.137 268.731 312.107 284.645 408.137 363.624 408.137 363.625 8.277 264.016 8.277 176.785 312.107" fill="#eefdff"/><path d="M376.6,77.188l218.077,52.014-218.077,4.573v274.363s205.405,0,205.405,0h0l49.51-24.297,5.747,24.297h61.15V8.277h-321.812v68.912ZM567.565,326.397h-77.211l-10.609-77.163,126.721-49.156-38.9,126.319Z" fill="#eefdff"/><path d="M1012.466,280.208c-7.02-13.552-17.542-24.784-31.574-33.696-14.04-8.903-33.889-13.962-59.546-15.177v-4.858c19.65-2.429,36.586-6.575,50.825-12.447,14.231-5.863,25.856-13.251,34.884-22.163,9.02-8.904,15.633-18.921,19.849-30.053s6.323-22.975,6.323-35.522c0-16.182-2.614-30.656-7.825-43.404-5.211-12.748-12.629-23.779-22.255-33.093s-20.961-17.003-33.988-23.076c-13.028-6.064-27.466-10.621-43.307-13.661-15.841-3.032-32.578-4.556-50.219-4.556h-164.813v400.729h97.442v-137.826h49.323c15.235,0,27.458,2.027,36.685,6.072,9.227,4.054,16.347,10.328,21.359,18.821,5.012,8.501,8.721,19.633,11.128,33.395l15.036,79.538h107.674l-21.052-84.999c-3.618-15.789-8.928-30.463-15.948-44.024ZM915.331,182.762c-11.634,8.502-28.47,12.748-50.526,12.748h-56.542v-108.074h58.949c22.056,0,38.494,4.657,49.323,13.963,10.821,9.314,16.239,23.478,16.239,42.499,0,17.405-5.817,30.363-17.442,38.864Z" fill="#eefdff"/><path d="M1296.074,238.621c1.602,18.62.199,35.414-4.207,50.39-4.414,14.976-11.932,26.719-22.554,35.221-10.63,8.501-25.167,12.748-43.614,12.748-20.048,0-36.694-5.36-49.929-16.09-13.235-10.721-23.06-25.907-29.474-45.54-6.415-19.633-9.617-42.801-9.617-69.52,0-20.638,1.801-38.755,5.41-54.334,3.609-15.579,8.92-28.637,15.94-39.166,7.02-10.52,15.642-18.418,25.865-23.679,10.223-5.26,21.957-7.898,35.192-7.898,15.633,0,28.57,3.443,38.793,10.328,10.223,6.885,17.849,16.593,22.861,29.14,5.012,12.547,7.111,27.523,6.315,44.928l89.626-10.922c2.406-20.236,1.203-39.668-3.61-58.288s-13.542-35.112-26.172-49.485c-12.629-14.365-29.375-25.697-50.227-33.998-20.853-8.301-45.713-12.455-74.582-12.455-33.283,0-61.753,5.469-85.411,16.4-23.666,10.931-43.016,26.007-58.052,45.23-15.036,19.231-26.163,41.595-33.383,67.091-7.219,25.505-10.821,52.626-10.821,81.364,0,27.925,3.502,54.343,10.522,79.236,7.02,24.893,18.148,47.056,33.383,66.479,15.235,19.432,34.885,34.609,58.948,45.54,24.064,10.922,52.933,16.392,86.622,16.392,31.673,0,58.442-4.657,80.299-13.963,21.857-9.314,39.299-22.062,52.327-38.253,13.028-16.19,22.056-34.508,27.068-54.946,5.012-20.437,6.522-41.796,4.514-64.059l-92.032-7.89Z" fill="#eefdff"/><polygon points="1473.183 8.502 1400.401 8.502 1400.401 409.231 1473.183 409.231 1497.844 409.231 1684.307 409.231 1684.307 327.264 1497.844 327.264 1497.844 244.083 1656.642 244.083 1656.642 170.617 1497.844 170.617 1497.844 90.468 1684.307 90.468 1684.307 8.502 1497.844 8.502 1473.183 8.502" fill="#eefdff"/><polygon points="1793.782 325.446 1793.782 8.502 1696.339 8.502 1696.339 409.231 1713.176 409.231 1793.782 409.231 1944.754 409.231 1944.754 325.446 1793.782 325.446" fill="#eefdff"/></svg>