<?xml version="1.0" encoding="UTF-8"?><svg id="Layer_1" xmlns="http://www.w3.org/2000/svg" viewBox="0 0 726.031 409.75"><polygon points="279.78 .053 227.697 217.655 222.355 .053 0 .053 212.339 227.611 0 227.611 0 409.75 225.026 409.75 476.762 .053 279.78 .053" fill="#eefdff"/><path d="M726.031,0h-228.117s0,0,0,0l-161.591,261.232,140.224,148.465h249.485s0,0,0,0V0s0,0,0,0ZM595.403,250.984l-10.684,76.133s0,0,0,0h-86.805s-32.719-131.183-32.719-131.183c0,0,0,0,0,0l130.208,55.05Z" fill="#eefdff"/></svg>