<?xml version="1.0" encoding="UTF-8"?><svg id="Layer_1" xmlns="http://www.w3.org/2000/svg" viewBox="0 0 1917.526 410.399"><path d="M731.796,410.346V.183h170.281c18.226,0,35.521,1.554,51.891,4.661,16.364,3.107,31.277,7.768,44.746,13.982,13.459,6.214,25.169,14.091,35.113,23.615,9.944,9.536,17.606,20.819,22.995,33.87,5.378,13.051,8.077,27.868,8.077,44.434,0,12.846-2.174,24.966-6.523,36.355-4.352,11.4-11.186,21.653-20.508,30.761-9.324,9.119-21.344,16.684-36.046,22.684-14.711,6.011-32.217,10.255-52.514,12.74v4.972c26.511,1.242,47.019,6.428,61.526,15.536,14.497,9.119,25.372,20.616,32.626,34.493,7.245,13.885,12.74,28.896,16.47,45.055l21.75,87.004h-111.242l-15.536-81.41c-2.487-14.08-6.323-25.48-11.498-34.182-5.186-8.699-12.537-15.119-22.062-19.266-9.536-4.136-22.17-6.214-37.909-6.214h-50.96v141.071h-100.678ZM832.473,191.592h58.417c22.781,0,40.182-4.35,52.202-13.051,12.012-8.699,18.023-21.954,18.023-39.771,0-19.471-5.594-33.967-16.781-43.503-11.184-9.527-28.179-14.294-50.958-14.294h-60.904v110.619Z" fill="#eefdff"/><path d="M1091.484,410.346V.183h170.281c18.226,0,35.521,1.554,51.891,4.661,16.364,3.107,31.277,7.768,44.746,13.982,13.459,6.214,25.169,14.091,35.113,23.615,9.944,9.536,17.606,20.819,22.995,33.87,5.378,13.051,8.077,27.868,8.077,44.434,0,12.846-2.174,24.966-6.523,36.355-4.352,11.4-11.186,21.653-20.508,30.761-9.324,9.119-21.344,16.684-36.046,22.684-14.711,6.011-32.217,10.255-52.514,12.74v4.972c26.511,1.242,47.019,6.428,61.526,15.536,14.497,9.119,25.372,20.616,32.626,34.493,7.245,13.885,12.74,28.896,16.47,45.055l21.75,87.004h-111.242l-15.536-81.41c-2.487-14.08-6.323-25.48-11.498-34.182-5.186-8.699-12.537-15.119-22.062-19.266-9.536-4.136-22.17-6.214-37.909-6.214h-50.96v141.071h-100.678ZM1192.162,191.592h58.417c22.781,0,40.182-4.35,52.202-13.051,12.012-8.699,18.023-21.954,18.023-39.771,0-19.471-5.594-33.967-16.781-43.503-11.184-9.527-28.179-14.294-50.958-14.294h-60.904v110.619Z" fill="#eefdff"/><path d="M1449.278,410.346V.183h101.3v410.163h-101.3Z" fill="#eefdff"/><path d="M1562.67,410.346V.183h100.678v175.251c19.886-6.62,37.384-16.05,52.514-28.276,15.119-12.215,28.062-26.197,38.84-41.947,10.769-15.741,19.674-32.628,26.725-50.649,7.04-18.023,12.429-36.143,16.156-54.378h113.106c-4.972,23.615-12.118,45.891-21.439,66.807-9.324,20.925-21.033,40.083-35.113,57.483-14.091,17.403-30.452,32.842-49.095,46.299-18.645,13.468-39.774,24.549-63.389,33.248v4.972c25.266-2.068,46.191-.514,62.767,4.661,16.567,5.186,30.035,12.74,40.396,22.684,10.35,9.944,18.535,21.236,24.547,33.87,6,12.643,11.08,25.383,15.227,38.22l32.937,101.918h-111.864l-23.615-91.354c-3.73-14.916-9.01-27.034-15.847-36.355-6.837-9.322-15.642-16.052-26.411-20.197-10.778-4.138-24.452-6.214-41.016-6.214h-35.424v154.12h-100.678Z" fill="#eefdff"/><polygon points="280.224 .053 228.058 218 222.708 .053 0 .053 212.676 227.972 0 227.972 0 410.399 225.383 410.399 477.517 .053 280.224 .053" fill="#eefdff"/><path d="M720.686,0h-228.479s0,0,0,0l-161.847,261.646,140.446,148.7h249.88s0,0,0,0V0s0,0,0,0ZM589.85,251.381l-10.701,76.254s0,0,0,0h-86.943s-32.771-131.391-32.771-131.391c0,0,0,0,0,0l130.414,55.137Z" fill="#eefdff"/></svg>
